<svg xmlns="http://www.w3.org/2000/svg" width="126.37" height="32.0" viewBox="0 0 126.37 32.0" fill="none">
  <rect x="13" y="14.3" width="6" height="3.4" rx="1.7" fill="#131417" opacity="0.4"/>
  <circle cx="9.5" cy="16" r="6" fill="#131417"/>
  <rect x="17" y="10.5" width="11" height="11" rx="3.4" fill="none" stroke="#131417" stroke-width="3"/>
  <path fill="#131417" d="M45.907 9.016V22.984H43.404V9.016Z M52.975 12.503V14.413H47.023V12.503ZM48.510 10.009H50.947V20.033Q50.947 20.601 51.191 20.867Q51.435 21.133 51.996 21.133Q52.158 21.133 52.434 21.094Q52.709 21.055 52.878 21.017L53.262 22.898Q52.861 23.022 52.443 23.074Q52.024 23.126 51.631 23.126Q50.127 23.126 49.319 22.377Q48.510 21.627 48.510 20.242Z M54.667 14.665 55.492 9.016H58.011L56.373 14.665Z M63.554 23.196Q62.351 23.196 61.421 22.850Q60.491 22.504 59.898 21.839Q59.305 21.175 59.121 20.228L61.402 19.800Q61.614 20.574 62.165 20.952Q62.716 21.330 63.603 21.330Q64.504 21.330 65.032 20.969Q65.561 20.608 65.561 20.080Q65.561 19.624 65.213 19.328Q64.865 19.033 64.145 18.879L62.360 18.493Q60.875 18.173 60.144 17.441Q59.413 16.710 59.413 15.556Q59.413 14.585 59.948 13.871Q60.483 13.157 61.433 12.764Q62.384 12.372 63.638 12.372Q64.828 12.372 65.685 12.709Q66.543 13.046 67.074 13.652Q67.605 14.258 67.812 15.076L65.639 15.500Q65.457 14.954 64.988 14.574Q64.518 14.194 63.671 14.194Q62.896 14.194 62.375 14.533Q61.855 14.871 61.855 15.409Q61.855 15.866 62.197 16.165Q62.540 16.464 63.340 16.639L65.124 17.014Q66.613 17.332 67.336 18.034Q68.059 18.737 68.059 19.846Q68.059 20.839 67.485 21.593Q66.911 22.347 65.895 22.772Q64.880 23.196 63.554 23.196Z M76.945 23.201Q75.948 23.201 75.151 22.841Q74.353 22.481 73.892 21.776Q73.431 21.071 73.431 20.037Q73.431 19.150 73.763 18.571Q74.096 17.992 74.666 17.645Q75.236 17.298 75.949 17.120Q76.663 16.942 77.424 16.861Q78.342 16.760 78.910 16.684Q79.479 16.608 79.748 16.440Q80.017 16.273 80.017 15.919V15.869Q80.017 15.351 79.809 14.993Q79.601 14.634 79.194 14.443Q78.788 14.251 78.188 14.251Q77.580 14.251 77.133 14.438Q76.686 14.626 76.404 14.925Q76.122 15.224 75.990 15.573L73.731 15.109Q74.043 14.180 74.690 13.575Q75.337 12.970 76.235 12.671Q77.132 12.372 78.178 12.372Q78.916 12.372 79.670 12.547Q80.425 12.723 81.055 13.132Q81.685 13.540 82.070 14.236Q82.454 14.931 82.454 15.977V22.984H80.123V21.539H80.024Q79.795 21.986 79.383 22.365Q78.971 22.744 78.366 22.972Q77.762 23.201 76.945 23.201ZM77.570 21.390Q78.325 21.390 78.876 21.092Q79.427 20.794 79.729 20.299Q80.031 19.804 80.031 19.224V17.983Q79.911 18.082 79.628 18.165Q79.345 18.248 78.991 18.313Q78.637 18.378 78.297 18.424Q77.958 18.471 77.721 18.502Q77.172 18.574 76.733 18.747Q76.295 18.919 76.044 19.224Q75.792 19.528 75.792 20.010Q75.792 20.463 76.023 20.769Q76.254 21.076 76.653 21.233Q77.053 21.390 77.570 21.390Z M89.028 22.984V9.016H94.255Q95.859 9.016 96.955 9.618Q98.050 10.220 98.611 11.263Q99.173 12.307 99.173 13.642Q99.173 14.980 98.606 16.021Q98.040 17.062 96.936 17.660Q95.832 18.259 94.214 18.259H90.752V16.197H93.883Q94.834 16.197 95.438 15.868Q96.042 15.539 96.329 14.960Q96.615 14.382 96.615 13.642Q96.615 12.894 96.329 12.324Q96.042 11.753 95.435 11.432Q94.828 11.111 93.871 11.111H91.532V22.984Z M103.258 9.016V22.984H100.821V9.016Z M108.297 23.201Q107.300 23.201 106.502 22.841Q105.705 22.481 105.244 21.776Q104.783 21.071 104.783 20.037Q104.783 19.150 105.115 18.571Q105.448 17.992 106.018 17.645Q106.588 17.298 107.301 17.120Q108.015 16.942 108.776 16.861Q109.694 16.760 110.262 16.684Q110.831 16.608 111.100 16.440Q111.369 16.273 111.369 15.919V15.869Q111.369 15.351 111.161 14.993Q110.952 14.634 110.546 14.443Q110.139 14.251 109.540 14.251Q108.931 14.251 108.485 14.438Q108.038 14.626 107.756 14.925Q107.474 15.224 107.342 15.573L105.083 15.109Q105.395 14.180 106.042 13.575Q106.689 12.970 107.587 12.671Q108.484 12.372 109.530 12.372Q110.268 12.372 111.022 12.547Q111.777 12.723 112.407 13.132Q113.037 13.540 113.422 14.236Q113.806 14.931 113.806 15.977V22.984H111.475V21.539H111.376Q111.147 21.986 110.735 22.365Q110.322 22.744 109.718 22.972Q109.113 23.201 108.297 23.201ZM108.922 21.390Q109.677 21.390 110.228 21.092Q110.778 20.794 111.080 20.299Q111.383 19.804 111.383 19.224V17.983Q111.263 18.082 110.980 18.165Q110.697 18.248 110.343 18.313Q109.989 18.378 109.649 18.424Q109.309 18.471 109.072 18.502Q108.524 18.574 108.085 18.747Q107.647 18.919 107.395 19.224Q107.144 19.528 107.144 20.010Q107.144 20.463 107.375 20.769Q107.605 21.076 108.005 21.233Q108.405 21.390 108.922 21.390Z M118.348 16.845V22.984H115.911V12.503H118.221L118.254 15.094H118.064Q118.498 13.736 119.354 13.054Q120.209 12.372 121.491 12.372Q122.571 12.372 123.376 12.833Q124.181 13.294 124.628 14.176Q125.075 15.058 125.075 16.321V22.984H122.639V16.695Q122.639 15.641 122.092 15.042Q121.545 14.444 120.586 14.444Q119.941 14.444 119.434 14.727Q118.927 15.009 118.637 15.545Q118.348 16.080 118.348 16.845Z"/>
</svg>
